<svg width="75" height="75" viewBox="0 0 75 75" fill="none" xmlns="http://www.w3.org/2000/svg">
<circle cx="37.5" cy="37.5" r="37.5" fill="#D9F1E2"/>
<path fill-rule="evenodd" clip-rule="evenodd" d="M21.375 33.9163C21.375 27.1595 21.375 23.7812 23.4741 21.6821C25.5731 19.583 28.9515 19.583 35.7083 19.583H39.2917C46.0484 19.583 49.4269 19.583 51.5259 21.6821C53.625 23.7812 53.625 27.1595 53.625 33.9163V41.083C53.625 47.8397 53.625 51.2183 51.5259 53.3172C49.4269 55.4163 46.0484 55.4163 39.2917 55.4163H35.7083C28.9515 55.4163 25.5731 55.4163 23.4741 53.3172C21.375 51.2183 21.375 47.8397 21.375 41.083V33.9163ZM26.75 37.4997C26.75 34.9659 26.75 33.699 27.5372 32.9118C28.3243 32.1247 29.5912 32.1247 32.125 32.1247H42.875C45.4088 32.1247 46.6757 32.1247 47.4629 32.9118C48.25 33.699 48.25 34.9659 48.25 37.4997V44.6663C48.25 47.2001 48.25 48.467 47.4629 49.2543C46.6757 50.0413 45.4088 50.0413 42.875 50.0413H32.125C29.5912 50.0413 28.3243 50.0413 27.5372 49.2543C26.75 48.467 26.75 47.2001 26.75 44.6663V37.4997ZM28.5417 25.4059C27.7995 25.4059 27.1979 26.0075 27.1979 26.7497C27.1979 27.4918 27.7995 28.0934 28.5417 28.0934H37.5C38.2421 28.0934 38.8438 27.4918 38.8438 26.7497C38.8438 26.0075 38.2421 25.4059 37.5 25.4059H28.5417Z" fill="#5DC988"/>
</svg>
