<svg width="75" height="75" viewBox="0 0 75 75" fill="none" xmlns="http://www.w3.org/2000/svg">
<circle cx="37.5" cy="37.5" r="37.5" fill="#DAF7F9"/>
<g clip-path="url(#clip0_1246_653)">
<path d="M22.0929 38.8213H19.4501V54.6783H22.0929C22.8228 54.6783 23.4144 54.0866 23.4144 53.3569V40.1427C23.4144 39.4129 22.8228 38.8213 22.0929 38.8213Z" fill="#4BE0E9"/>
<path d="M54.9353 40.5886C53.981 40.0183 52.8247 39.9938 51.8479 40.5215L43.1945 45.1732C42.9925 46.8028 41.6149 48.0721 39.9319 48.0721H34.6197C34.2545 48.0721 33.959 47.7767 33.959 47.4115C33.959 47.0464 34.2545 46.7509 34.6197 46.7509H39.9319C41.0249 46.7509 41.914 45.8619 41.914 44.7691C41.914 43.697 41.0569 42.8262 39.9925 42.7933C39.597 42.7887 33.2112 42.7872 33.2112 42.7872L30.9555 40.5318C30.7077 40.2841 30.3716 40.1448 30.0212 40.1448H24.7355V53.3597H27.0687L31.3426 54.6784C33.1183 55.2493 35.0175 55.9996 37.1219 55.9996C39.0247 55.9996 40.8997 55.3687 42.5179 54.1287L55.1024 45.8C55.9457 45.222 56.4496 44.2672 56.4496 43.2478C56.4496 42.1472 55.8837 41.1537 54.9353 40.5886Z" fill="#4BE0E9"/>
<path d="M37.95 24.2857C37.9048 24.2857 37.8631 24.2979 37.8181 24.299C37.2108 21.2769 34.5438 19 31.3429 19C28.142 19 25.475 21.2769 24.8677 24.299C24.8228 24.2979 24.781 24.2857 24.7358 24.2857C21.8166 24.2857 19.4501 26.6521 19.4501 29.5713C19.4501 32.4906 21.8166 34.857 24.7358 34.857C25.993 34.857 27.1321 34.3999 28.0394 33.667C28.9466 34.3999 30.0858 34.857 31.3429 34.857C32.6001 34.857 33.7392 34.3999 34.6465 33.667C35.5537 34.3999 36.6929 34.857 37.95 34.857C40.8692 34.857 43.2357 32.4906 43.2357 29.5713C43.2357 26.6521 40.8692 24.2857 37.95 24.2857Z" fill="#4BE0E9"/>
<path d="M48.5208 22.9639C46.346 22.9639 44.377 23.8408 42.9445 25.2588C43.946 26.4173 44.5565 27.923 44.5565 29.571C44.5565 31.8053 43.435 33.7764 41.7321 34.9727C43.1194 37.2755 45.6364 38.8209 48.5208 38.8209C52.8996 38.8209 56.4493 35.2712 56.4493 30.8924C56.4493 26.5136 52.8996 22.9639 48.5208 22.9639ZM48.5208 30.2317C49.9777 30.2317 51.1636 31.4169 51.1636 32.8745C51.1636 34.1025 50.3179 35.128 49.1815 35.4235V35.5173C49.1815 35.8825 48.886 36.1781 48.5208 36.1781C48.1556 36.1781 47.8601 35.8825 47.8601 35.5173V35.4235C46.7237 35.128 45.878 34.1025 45.878 32.8745C45.878 32.5093 46.1735 32.2138 46.5387 32.2138C46.9039 32.2138 47.1994 32.5093 47.1994 32.8745C47.1994 33.603 47.7917 34.1959 48.5208 34.1959C49.2499 34.1959 49.8422 33.603 49.8422 32.8745C49.8422 32.146 49.2499 31.5531 48.5208 31.5531C47.0639 31.5531 45.878 30.3678 45.878 28.9103C45.878 27.6822 46.7237 26.6567 47.8601 26.3613V26.2674C47.8601 25.9022 48.1556 25.6067 48.5208 25.6067C48.886 25.6067 49.1815 25.9022 49.1815 26.2674V26.3613C50.3179 26.6567 51.1636 27.6822 51.1636 28.9103C51.1636 29.2754 50.8681 29.571 50.5029 29.571C50.1377 29.571 49.8422 29.2754 49.8422 28.9103C49.8422 28.1818 49.2499 27.5888 48.5208 27.5888C47.7917 27.5888 47.1994 28.1818 47.1994 28.9103C47.1994 29.6387 47.7917 30.2317 48.5208 30.2317Z" fill="#4BE0E9"/>
</g>
<defs>
<clipPath id="clip0_1246_653">
<rect width="43" height="43" fill="white" transform="translate(16 16)"/>
</clipPath>
</defs>
</svg>
