<svg width="75" height="75" viewBox="0 0 75 75" fill="none" xmlns="http://www.w3.org/2000/svg">
<circle cx="37.5" cy="37.5" r="37.5" fill="#F7E8DA"/>
<path d="M50.0417 37.5002H55.4167V51.8335C55.4167 52.7839 55.0391 53.6953 54.3671 54.3673C53.6951 55.0393 52.7837 55.4168 51.8333 55.4168H50.0417V37.5002ZM46.4583 23.1668V55.4168H23.1667C22.2163 55.4168 21.3049 55.0393 20.6329 54.3673C19.9609 53.6953 19.5833 52.7839 19.5833 51.8335V23.1668C19.5833 22.2165 19.9609 21.305 20.6329 20.633C21.3049 19.961 22.2163 19.5835 23.1667 19.5835H42.875C43.8254 19.5835 44.7368 19.961 45.4088 20.633C46.0808 21.305 46.4583 22.2165 46.4583 23.1668ZM33.9167 44.6668H24.9583V48.2502H33.9167V44.6668ZM41.0833 35.7085H24.9583V39.2918H41.0833V35.7085ZM41.0833 26.7502H24.9583V30.3335H41.0833V26.7502Z" fill="#F5963E"/>
</svg>
