<svg width="75" height="75" viewBox="0 0 75 75" fill="none" xmlns="http://www.w3.org/2000/svg">
<circle cx="37.5" cy="37.5" r="37.5" fill="#DFEAF7"/>
<path d="M36.7425 37.9999H28.1111C27.3646 37.9999 26.7539 37.3892 26.7539 36.6427C26.7539 35.8963 27.3646 35.2856 28.1111 35.2856H38.9683C39.4976 35.2856 39.959 35.5977 40.1761 36.0456C41.4925 35.557 42.9176 35.2856 44.3969 35.2856C44.8583 35.2856 45.3062 35.3127 45.754 35.367V23.0715C45.754 20.8322 43.9219 19 41.6826 19H25.3968C23.1575 19 21.3253 20.8322 21.3253 23.0715V48.8573C21.3253 51.0966 23.1575 52.9288 25.3968 52.9288H33.458C32.6437 51.2866 32.1823 49.4409 32.1823 47.5002C32.1823 43.6594 33.9604 40.2391 36.7425 37.9999ZM29.4682 24.4284H37.6111C38.3576 24.4284 38.9683 25.0391 38.9683 25.7855C38.9683 26.532 38.3576 27.1427 37.6111 27.1427H29.4682C28.7218 27.1427 28.1111 26.532 28.1111 25.7855C28.1111 25.0391 28.7218 24.4284 29.4682 24.4284ZM28.1111 29.857H38.9683C39.7147 29.857 40.3254 30.4677 40.3254 31.2141C40.3254 31.9606 39.7147 32.5713 38.9683 32.5713H28.1111C27.3646 32.5713 26.7539 31.9606 26.7539 31.2141C26.7539 30.4677 27.3646 29.857 28.1111 29.857ZM44.3969 37.9999C39.1585 37.9999 34.8968 42.2613 34.8968 47.4999C34.8968 52.7385 39.1583 57 44.3969 57C49.6355 57 53.8969 52.7385 53.8969 47.4999C53.8969 42.2613 49.6355 37.9999 44.3969 37.9999ZM41.6826 43.4285C42.4324 43.4285 43.0397 44.0358 43.0397 44.7856C43.0397 45.5355 42.4324 46.1428 41.6826 46.1428C40.9327 46.1428 40.3254 45.5355 40.3254 44.7856C40.3254 44.0358 40.9327 43.4285 41.6826 43.4285ZM47.1112 51.5714C46.3613 51.5714 45.754 50.9641 45.754 50.2142C45.754 49.4644 46.3613 48.8571 47.1112 48.8571C47.861 48.8571 48.4683 49.4644 48.4683 50.2142C48.4683 50.9641 47.861 51.5714 47.1112 51.5714ZM48.0713 45.7459L42.6427 51.1745C42.3781 51.4391 42.0303 51.5714 41.6826 51.5714C41.3348 51.5714 40.987 51.4391 40.7224 51.1745C40.1914 50.6435 40.1914 49.7868 40.7224 49.2558L46.151 43.8272C46.682 43.2962 47.5387 43.2962 48.0697 43.8272C48.6007 44.3582 48.6007 45.2149 48.0697 45.7459H48.0713Z" fill="#4D9FFF"/>
</svg>
