<svg width="75" height="75" viewBox="0 0 75 75" fill="none" xmlns="http://www.w3.org/2000/svg">
<circle cx="37.5" cy="37.5" r="37.5" fill="#FDE4E4"/>
<path fill-rule="evenodd" clip-rule="evenodd" d="M44.9503 30.7504C44.9503 34.9602 41.5942 38.3358 37.4087 38.3358C33.2232 38.3358 29.867 34.9602 29.867 30.7504C29.867 26.5389 33.2232 23.1665 37.4087 23.1665C41.5942 23.1665 44.9503 26.5389 44.9503 30.7504ZM37.4088 51.833C31.2612 51.833 26.0121 50.8584 26.0121 46.96C26.0121 43.06 31.2275 42.0499 37.4088 42.0499C43.5563 42.0499 48.8054 43.0245 48.8054 46.9245C48.8054 50.8229 43.59 51.833 37.4088 51.833ZM48.1732 30.8875C48.1732 33.0336 47.5331 35.0328 46.4101 36.6948C46.2946 36.8658 46.3973 37.0966 46.601 37.1321C46.8818 37.1805 47.1722 37.2079 47.4673 37.216C50.4112 37.2934 53.0534 35.3878 53.7833 32.5188C54.8646 28.2573 51.6898 24.4315 47.647 24.4315C47.2075 24.4315 46.7871 24.4783 46.378 24.5622C46.3219 24.5751 46.2625 24.6009 46.2305 24.651C46.192 24.7123 46.2208 24.7946 46.2593 24.8478C47.4738 26.5598 48.1732 28.6478 48.1732 30.8875ZM53.0485 40.2097C55.0265 40.5986 56.3276 41.3925 56.8666 42.5462C57.3222 43.4933 57.3222 44.5922 56.8666 45.5378C56.042 47.3272 53.3838 47.9017 52.3506 48.0501C52.1373 48.0824 51.9656 47.8968 51.9881 47.6822C52.5159 42.7237 48.3175 40.3727 47.2314 39.8321C47.1849 39.8079 47.1753 39.7708 47.1801 39.7482C47.1833 39.7321 47.2025 39.7063 47.2378 39.7014C49.5881 39.6579 52.1148 39.9806 53.0485 40.2097ZM27.5331 37.2151C27.8283 37.207 28.117 37.1812 28.3994 37.1312C28.6031 37.0957 28.7058 36.8649 28.5903 36.6939C27.4673 35.0319 26.8272 33.0327 26.8272 30.8866C26.8272 28.6469 27.5267 26.559 28.7411 24.8469C28.7796 24.7937 28.8069 24.7114 28.77 24.6501C28.7379 24.6017 28.6769 24.5743 28.6224 24.5613C28.2117 24.4774 27.7914 24.4306 27.3518 24.4306C23.309 24.4306 20.1342 28.2565 21.2171 32.5179C21.947 35.3869 24.5892 37.2925 27.5331 37.2151ZM27.8195 39.7475C27.8243 39.7717 27.8147 39.8072 27.7698 39.833C26.6821 40.3735 22.4837 42.7245 23.0115 47.6815C23.034 47.8977 22.8639 48.0817 22.6506 48.051C21.6174 47.9025 18.9592 47.3281 18.1346 45.5386C17.6774 44.5915 17.6774 43.4942 18.1346 42.547C18.6736 41.3933 19.9731 40.5994 21.9511 40.209C22.8864 39.9814 25.4115 39.6587 27.7634 39.7023C27.7986 39.7071 27.8163 39.733 27.8195 39.7475Z" fill="#EE7A72"/>
</svg>
