<svg width="75" height="75" viewBox="0 0 75 75" fill="none" xmlns="http://www.w3.org/2000/svg">
<circle cx="37.5" cy="37.5" r="37.5" fill="#ECECFF"/>
<path fill-rule="evenodd" clip-rule="evenodd" d="M36.3495 42.1072H25.296C21.7381 42.1072 18.8486 39.2177 18.8486 35.6599C18.8486 32.102 21.7381 29.2126 25.296 29.2126C25.6759 29.2126 26.0473 29.2454 26.4099 29.3076C27.0455 24.0673 31.5136 20 36.9263 20C39.3961 20 41.6692 20.8463 43.4705 22.2643C44.1941 21.9914 44.9765 21.8411 45.7935 21.8411C49.0733 21.8411 51.8106 24.2539 52.3668 27.4369C54.4083 28.9636 55.695 31.259 55.695 33.8152C55.695 38.3591 51.5965 42.1054 46.4842 42.1054H38.194V47.7565C39.4738 48.0984 40.479 49.1122 40.8106 50.3955H48.4429C48.8522 48.8083 50.2961 47.6321 52.0111 47.6321C54.0457 47.6321 55.6951 49.2833 55.6951 51.3161C55.6951 53.3506 54.0439 55 52.0111 55C50.2961 55 48.8523 53.8238 48.4429 52.2366H40.8106C40.4013 53.8238 38.9574 55 37.2424 55C35.5274 55 34.0835 53.8238 33.6742 52.2366H26.1042C25.6949 53.8238 24.251 55 22.536 55C20.5015 55 18.8521 53.3489 18.8521 51.3161C18.8521 49.2815 20.5032 47.6321 22.536 47.6321C24.251 47.6321 25.6949 48.8083 26.1042 50.3955H33.6742C34.011 49.0916 35.0438 48.0656 36.353 47.7409V42.1054L36.3495 42.1072ZM31.7433 35.6599H37.2701C37.7778 35.6599 38.1906 35.2471 38.1906 34.7394C38.1906 34.2316 37.7779 33.8188 37.2701 33.8188H31.7433L33.2165 32.7135C33.6241 32.4078 33.7053 31.8309 33.4013 31.4233C33.0956 31.0157 32.5188 30.9345 32.1111 31.2385L28.4272 34.0019C28.1958 34.1763 28.0593 34.4492 28.0593 34.7394C28.0593 35.0295 28.1958 35.3024 28.4272 35.4769L32.1111 38.2403C32.5188 38.546 33.0956 38.4631 33.4013 38.0555C33.707 37.6479 33.6241 37.071 33.2165 36.7653L31.7433 35.6599ZM42.7969 31.976L41.3237 33.0813C40.9161 33.387 40.8349 33.9639 41.1389 34.3715C41.4446 34.7791 42.0214 34.8603 42.429 34.5563L46.113 31.7929C46.3444 31.6185 46.4808 31.3456 46.4808 31.0554C46.4808 30.7652 46.3444 30.4924 46.113 30.3179L42.429 27.5545C42.0214 27.2488 41.4446 27.3317 41.1389 27.7393C40.8332 28.1469 40.9161 28.7238 41.3237 29.0295L42.7969 30.1349H37.2701C36.7623 30.1349 36.3495 30.5476 36.3495 31.0554C36.3495 31.5632 36.7623 31.9759 37.2701 31.9759L42.7969 31.976Z" fill="#7A76FF"/>
</svg>
