<svg width="100" height="100" viewBox="0 0 100 100" fill="none" xmlns="http://www.w3.org/2000/svg">
  <circle cx="50" cy="50" r="45" fill="#E8A867"/>
  <path d="M50 95C74.8528 95 95 74.8528 95 50C95 25.1472 74.8528 5 50 5C25.1472 5 5 25.1472 5 50C5 74.8528 25.1472 95 50 95Z" fill="#D28948"/>
  <path d="M21 32C23.7614 32 26 29.7614 26 27C26 24.2386 23.7614 22 21 22C18.2386 22 16 24.2386 16 27C16 29.7614 18.2386 32 21 32Z" fill="#8C5E2A"/>
  <path d="M32 20C34.7614 20 37 17.7614 37 15C37 12.2386 34.7614 10 32 10C29.2386 10 27 12.2386 27 15C27 17.7614 29.2386 20 32 20Z" fill="#B67F45"/>
  <path d="M46 87C48.7614 87 51 84.7614 51 82C51 79.2386 48.7614 77 46 77C43.2386 77 41 79.2386 41 82C41 84.7614 43.2386 87 46 87Z" fill="#8C5E2A"/>
  <path d="M70 77C72.7614 77 75 74.7614 75 72C75 69.2386 72.7614 67 70 67C67.2386 67 65 69.2386 65 72C65 74.7614 67.2386 77 70 77Z" fill="#8C5E2A"/>
  <path d="M80 45C82.7614 45 85 42.7614 85 40C85 37.2386 82.7614 35 80 35C77.2386 35 75 37.2386 75 40C75 42.7614 77.2386 45 80 45Z" fill="#B67F45"/>
  <path d="M60 57C62.7614 57 65 54.7614 65 52C65 49.2386 62.7614 47 60 47C57.2386 47 55 49.2386 55 52C55 54.7614 57.2386 57 60 57Z" fill="#8C5E2A"/>
  <path d="M35 60C37.7614 60 40 57.7614 40 55C40 52.2386 37.7614 50 35 50C32.2386 50 30 52.2386 30 55C30 57.7614 32.2386 60 35 60Z" fill="#B67F45"/>
  <path d="M30 38C32.7614 38 35 35.7614 35 33C35 30.2386 32.7614 28 30 28C27.2386 28 25 30.2386 25 33C25 35.7614 27.2386 38 30 38Z" fill="#8C5E2A"/>
  <path d="M92 45C89 40 84 45 84 45L75 36C75 36 81 28 75 25C69 22 65 31 65 31L54 20C54 20 59 10 51 8C43 6 38 20 38 20L25 24C25 24 25 15 18 15C11 15 10 25 10 25L10 39C10 39 2 39 2 46C2 53 14 53 14 53L25 65C25 65 18 73 22 78C26 83 34 77 34 77L50 85C50 85 50 93 57 94C64 95 67 85 67 85L81 76C81 76 90 80 93 75C96 70 88 65 88 65L92 45Z" fill="#E8A867" fill-opacity="0.5"/>
  <path d="M84.5 37.5C86.5 36 89 35.5 90 33.5C90.5 32.5 91 29.8333 90 25.5" stroke="#B77A42" stroke-width="2" stroke-linecap="round"/>
</svg> 