<svg width="167" height="47" viewBox="0 0 167 47" fill="none" xmlns="http://www.w3.org/2000/svg">
<path d="M8.68354 38.0129C12.7215 37.9085 22.3009 35.2351 26.2275 24.9591C30.154 14.6832 29.2563 2.08887 29.2563 2.08887C29.2563 2.08887 27.3766 4.38634 25.8101 5.95279C24.2437 7.51925 21.3192 9.71228 21.3192 9.71228L19.6483 18.38L16.9335 12.9496C16.9335 12.9496 11.0204 17.1268 9.20531 24.7503C7.39021 32.3737 8.68354 38.0129 8.68354 38.0129ZM8.68354 38.0129C7.53481 39.6838 4.29747 43.13 2 45.323" stroke="#40A798" stroke-width="2.29747" stroke-linecap="round" stroke-linejoin="round"/>
<path d="M19.0208 23.8101C17.5587 26.6297 14.8435 30.3892 12.0239 34.0442" stroke="#40A798" stroke-width="2.29747" stroke-linecap="round" stroke-linejoin="round"/>
<path d="M42.1273 33.0005V13.9042C42.1273 11.7979 42.7523 10.1197 44.0022 8.86978C45.2522 7.59669 47.0345 6.96015 49.3492 6.96015C50.1362 6.96015 50.8885 7.04117 51.606 7.20319C52.3467 7.36522 52.9717 7.61984 53.4809 7.96705L52.0574 11.8905C51.7565 11.6821 51.4208 11.5201 51.0505 11.4044C50.6801 11.2886 50.2866 11.2308 49.87 11.2308C49.083 11.2308 48.4696 11.4622 48.0298 11.9252C47.6132 12.365 47.4048 13.0362 47.4048 13.939V15.675L47.5437 18.0013V33.0005H42.1273ZM39.2455 18.904V14.7375H52.1963V18.904H39.2455ZM55.2517 33.0005V7.23791H60.6681V33.0005H55.2517ZM74.253 33.2783C72.1235 33.2783 70.2485 32.8616 68.6283 32.0283C67.0311 31.195 65.7928 30.0608 64.9132 28.6257C64.0336 27.1675 63.5938 25.5124 63.5938 23.6607C63.5938 21.7858 64.022 20.1308 64.8785 18.6957C65.758 17.2374 66.9501 16.1032 68.4547 15.2931C69.9592 14.4598 71.6605 14.0431 73.5586 14.0431C75.3872 14.0431 77.0306 14.4366 78.4889 15.2236C79.9703 15.9875 81.1392 17.0985 81.9956 18.5568C82.8521 19.9919 83.2803 21.7163 83.2803 23.7301C83.2803 23.9385 83.2687 24.1815 83.2456 24.4593C83.2224 24.7139 83.1993 24.9569 83.1761 25.1884H68.0033V22.0288H80.3291L78.2458 22.9663C78.2458 21.9941 78.0491 21.1492 77.6556 20.4317C77.2621 19.7141 76.7181 19.1586 76.0237 18.7651C75.3293 18.3485 74.5192 18.1401 73.5933 18.1401C72.6674 18.1401 71.8457 18.3485 71.1281 18.7651C70.4337 19.1586 69.8898 19.7257 69.4963 20.4664C69.1028 21.184 68.906 22.0404 68.906 23.0357V23.869C68.906 24.8875 69.1259 25.7902 69.5657 26.5772C70.0287 27.3411 70.6652 27.9313 71.4753 28.3479C72.3086 28.7414 73.2808 28.9382 74.3919 28.9382C75.3872 28.9382 76.2552 28.7877 76.9959 28.4868C77.7597 28.1859 78.4541 27.7346 79.0791 27.1327L81.9609 30.2576C81.1045 31.2297 80.0281 31.982 78.7319 32.5144C77.4357 33.0236 75.9427 33.2783 74.253 33.2783ZM94.2123 33.2783C92.4532 33.2783 90.8676 32.8848 89.4556 32.0978C88.0437 31.2876 86.9211 30.165 86.0878 28.7299C85.2776 27.2948 84.8725 25.605 84.8725 23.6607C84.8725 21.6932 85.2776 19.9919 86.0878 18.5568C86.9211 17.1217 88.0437 16.0106 89.4556 15.2236C90.8676 14.4366 92.4532 14.0431 94.2123 14.0431C95.7863 14.0431 97.1636 14.3903 98.3441 15.0847C99.5246 15.7791 100.439 16.8323 101.087 18.2443C101.735 19.6563 102.059 21.4617 102.059 23.6607C102.059 25.8365 101.747 27.642 101.122 29.0771C100.497 30.489 99.594 31.5422 98.4135 32.2366C97.2562 32.931 95.8558 33.2783 94.2123 33.2783ZM95.1498 28.834C96.0294 28.834 96.828 28.6257 97.5455 28.2091C98.2631 27.7924 98.8302 27.2022 99.2468 26.4383C99.6866 25.6513 99.9065 24.7254 99.9065 23.6607C99.9065 22.5728 99.6866 21.6469 99.2468 20.8831C98.8302 20.1192 98.2631 19.529 97.5455 19.1123C96.828 18.6957 96.0294 18.4873 95.1498 18.4873C94.2471 18.4873 93.4369 18.6957 92.7194 19.1123C92.0018 19.529 91.4231 20.1192 90.9833 20.8831C90.5667 21.6469 90.3584 22.5728 90.3584 23.6607C90.3584 24.7254 90.5667 25.6513 90.9833 26.4383C91.4231 27.2022 92.0018 27.7924 92.7194 28.2091C93.4369 28.6257 94.2471 28.834 95.1498 28.834ZM100.045 33.0005V29.1812L100.15 23.626L99.8023 18.1054V7.23791H105.219V33.0005H100.045ZM118.322 40.014C116.562 40.014 114.861 39.7941 113.218 39.3543C111.597 38.9377 110.243 38.3011 109.155 37.4447L111.308 33.556C112.095 34.2041 113.09 34.7134 114.294 35.0837C115.521 35.4772 116.724 35.674 117.905 35.674C119.826 35.674 121.215 35.2457 122.071 34.3893C122.951 33.5329 123.391 32.2598 123.391 30.5701V27.7577L123.738 23.0704L123.669 18.3485V14.3209H128.807V29.8756C128.807 33.3477 127.904 35.9054 126.099 37.5489C124.294 39.1923 121.701 40.014 118.322 40.014ZM117.488 32.0978C115.752 32.0978 114.178 31.7274 112.766 30.9867C111.378 30.2229 110.255 29.1697 109.398 27.8271C108.565 26.4615 108.149 24.8759 108.149 23.0704C108.149 21.2418 108.565 19.6563 109.398 18.3137C110.255 16.9481 111.378 15.8949 112.766 15.1542C114.178 14.4135 115.752 14.0431 117.488 14.0431C119.062 14.0431 120.451 14.3672 121.655 15.0153C122.858 15.6403 123.796 16.624 124.467 17.9665C125.138 19.2859 125.474 20.9872 125.474 23.0704C125.474 25.1305 125.138 26.8318 124.467 28.1743C123.796 29.4937 122.858 30.4775 121.655 31.1256C120.451 31.7737 119.062 32.0978 117.488 32.0978ZM118.565 27.6535C119.514 27.6535 120.359 27.4684 121.099 27.098C121.84 26.7045 122.419 26.1606 122.835 25.4662C123.252 24.7717 123.46 23.9732 123.46 23.0704C123.46 22.1446 123.252 21.346 122.835 20.6747C122.419 19.9803 121.84 19.4479 121.099 19.0776C120.359 18.6841 119.514 18.4873 118.565 18.4873C117.616 18.4873 116.771 18.6841 116.03 19.0776C115.289 19.4479 114.699 19.9803 114.259 20.6747C113.843 21.346 113.634 22.1446 113.634 23.0704C113.634 23.9732 113.843 24.7717 114.259 25.4662C114.699 26.1606 115.289 26.7045 116.03 27.098C116.771 27.4684 117.616 27.6535 118.565 27.6535ZM142.424 33.2783C140.295 33.2783 138.42 32.8616 136.8 32.0283C135.203 31.195 133.964 30.0608 133.085 28.6257C132.205 27.1675 131.765 25.5124 131.765 23.6607C131.765 21.7858 132.193 20.1308 133.05 18.6957C133.929 17.2374 135.122 16.1032 136.626 15.2931C138.131 14.4598 139.832 14.0431 141.73 14.0431C143.559 14.0431 145.202 14.4366 146.66 15.2236C148.142 15.9875 149.311 17.0985 150.167 18.5568C151.023 19.9919 151.452 21.7163 151.452 23.7301C151.452 23.9385 151.44 24.1815 151.417 24.4593C151.394 24.7139 151.371 24.9569 151.348 25.1884H136.175V22.0288H148.5L146.417 22.9663C146.417 21.9941 146.221 21.1492 145.827 20.4317C145.434 19.7141 144.89 19.1586 144.195 18.7651C143.501 18.3485 142.691 18.1401 141.765 18.1401C140.839 18.1401 140.017 18.3485 139.3 18.7651C138.605 19.1586 138.061 19.7257 137.668 20.4664C137.274 21.184 137.077 22.0404 137.077 23.0357V23.869C137.077 24.8875 137.297 25.7902 137.737 26.5772C138.2 27.3411 138.837 27.9313 139.647 28.3479C140.48 28.7414 141.452 28.9382 142.563 28.9382C143.559 28.9382 144.427 28.7877 145.167 28.4868C145.931 28.1859 146.626 27.7346 147.251 27.1327L150.132 30.2576C149.276 31.2297 148.2 31.982 146.903 32.5144C145.607 33.0236 144.114 33.2783 142.424 33.2783ZM154.363 33.0005V14.3209H159.537V19.5984L158.808 18.0707C159.363 16.7513 160.254 15.756 161.481 15.0847C162.708 14.3903 164.201 14.0431 165.96 14.0431V19.0429C165.729 19.0197 165.52 19.0081 165.335 19.0081C165.15 18.985 164.953 18.9734 164.745 18.9734C163.263 18.9734 162.06 19.4016 161.134 20.2581C160.231 21.0914 159.78 22.3992 159.78 24.1815V33.0005H154.363Z" fill="#40A798"/>
</svg>
