<svg width="52" height="52" viewBox="0 0 52 52" fill="none" xmlns="http://www.w3.org/2000/svg">
<path d="M37.3041 10.4114H33.2187V7.64322C33.2187 6.11611 31.9799 4.875 30.4504 4.875C28.921 4.875 27.6822 6.11611 27.6822 7.64322V10.4114H12.9184V7.64322C12.9184 6.11611 11.6796 4.875 10.1501 4.875C8.62073 4.875 7.38192 6.11611 7.38192 7.64322V10.4114H3.29647C1.47408 10.4114 0 11.8878 0 13.7079V40.3336C0 42.156 1.47638 43.6301 3.29647 43.6301H30.0698C29.0364 41.69 28.4481 39.4685 28.4481 37.111C28.4481 30.0013 33.7908 24.1395 40.6005 23.468V13.7103C40.6005 11.8879 39.1241 10.4138 37.3041 10.4138L37.3041 10.4114Z" fill="#4D9FFF"/>
<path d="M41.9062 27.0903C41.4633 27.0903 41.0296 27.1318 40.6006 27.1895C35.8323 27.8493 32.1391 32.0385 32.1391 37.1067C32.1391 39.5957 33.0341 41.8726 34.5059 43.6258C36.2984 45.7643 38.9489 47.1253 41.9062 47.1253C47.2904 47.1253 51.6733 42.6292 51.6733 37.1042C51.6733 31.5792 47.2926 27.0854 41.9062 27.0854L41.9062 27.0903ZM46.9905 38.4402H43.055C42.1023 38.4402 41.3318 37.6697 41.3318 36.7169V32.7814C41.3318 31.8287 42.1023 31.0582 43.055 31.0582C44.0078 31.0582 44.7783 31.8287 44.7783 32.7814V34.9914H46.9882C47.941 34.9914 48.7115 35.7619 48.7115 36.7146C48.7115 37.6674 47.941 38.4379 46.9882 38.4379L46.9905 38.4402Z" fill="#4D9FFF"/>
</svg>
