<svg width="52" height="52" viewBox="0 0 52 52" fill="none" xmlns="http://www.w3.org/2000/svg">
<path fill-rule="evenodd" clip-rule="evenodd" d="M0 11.2467C0 9.77232 0.585701 8.35831 1.62826 7.31575C2.67081 6.2732 4.08482 5.6875 5.55921 5.6875H45.7566C47.231 5.6875 48.645 6.2732 49.6875 7.31575C50.7301 8.35831 51.3158 9.77232 51.3158 11.2467V12.9572C51.3158 14.4316 50.7301 15.8456 49.6875 16.8882C48.645 17.9307 47.231 18.5164 45.7566 18.5164H44.9013V41.1809C44.9013 44.0247 42.6135 46.3125 39.7697 46.3125H11.5461C8.7023 46.3125 6.41447 44.0247 6.41447 41.1809V18.5164H5.55921C4.08482 18.5164 2.67081 17.9307 1.62826 16.8882C0.585701 15.8456 0 14.4316 0 12.9572L0 11.2467ZM5.55921 9.96382C5.21897 9.96382 4.89266 10.099 4.65207 10.3396C4.41148 10.5802 4.27632 10.9065 4.27632 11.2467V12.9572C4.27632 13.2975 4.41148 13.6238 4.65207 13.8644C4.89266 14.105 5.21897 14.2401 5.55921 14.2401H45.7566C46.0968 14.2401 46.4231 14.105 46.6637 13.8644C46.9043 13.6238 47.0395 13.2975 47.0395 12.9572V11.2467C47.0395 10.9065 46.9043 10.5802 46.6637 10.3396C46.4231 10.099 46.0968 9.96382 45.7566 9.96382H5.55921ZM17.1053 22.7928C16.5382 22.7928 15.9943 23.018 15.5934 23.419C15.1924 23.82 14.9671 24.3638 14.9671 24.9309C14.9671 25.498 15.1924 26.0418 15.5934 26.4428C15.9943 26.8438 16.5382 27.0691 17.1053 27.0691H34.2105C34.7776 27.0691 35.3215 26.8438 35.7224 26.4428C36.1234 26.0418 36.3487 25.498 36.3487 24.9309C36.3487 24.3638 36.1234 23.82 35.7224 23.419C35.3215 23.018 34.7776 22.7928 34.2105 22.7928H17.1053Z" fill="#4BE0E9"/>
</svg>
