<svg width="52" height="52" viewBox="0 0 52 52" fill="none" xmlns="http://www.w3.org/2000/svg">
<g clip-path="url(#clip0_1247_959)">
<path d="M42.6565 15.0312H31.6877V4.0625L42.6565 15.0312ZM31.6877 17.7734H42.6565V43.8242C42.6565 46.096 40.8149 47.9375 38.5432 47.9375H13.8635C11.5918 47.9375 9.75024 46.0951 9.75024 43.8242V8.17578C9.75024 5.90405 11.5918 4.0625 13.8635 4.0625H28.9456L28.9459 15.0312C28.9456 16.548 30.171 17.7734 31.6877 17.7734ZM15.2346 11.6035C15.2346 11.9789 15.5457 12.2891 15.9202 12.2891H22.7756C23.1527 12.2891 23.4612 11.9789 23.4612 11.6035V10.2324C23.4612 9.85794 23.1527 9.54688 22.7756 9.54688H15.9202C15.5457 9.54688 15.2346 9.85794 15.2346 10.2324V11.6035ZM15.9202 17.7734H22.7756C23.1527 17.7734 23.4612 17.4649 23.4612 17.0879V15.7168C23.4612 15.3397 23.1527 15.0312 22.7756 15.0312H15.9202C15.5457 15.0312 15.2346 15.3397 15.2346 15.7168V17.0879C15.2346 17.4649 15.5457 17.7734 15.9202 17.7734ZM26.6747 31.2102L26.1262 31.073C24.1724 30.4732 24.2153 30.1219 24.2838 29.8134C24.4017 29.1439 25.7055 28.9805 26.8778 29.1599C27.3571 29.2323 27.883 29.4009 28.3851 29.575C29.2755 29.883 30.2558 29.409 30.566 28.5176C30.8767 27.6229 30.404 26.646 29.5094 26.335C28.8908 26.1221 28.386 25.9855 27.919 25.8831V25.3145C27.919 24.3693 27.1517 23.6006 26.2051 23.6006C25.2584 23.6006 24.4912 24.3692 24.4912 25.3145V25.8279C22.57 26.2399 21.216 27.4396 20.9075 29.2306C20.2729 32.9017 23.7517 33.9224 25.2367 34.3585L25.7348 34.5032C28.2439 35.2209 28.2028 35.4621 28.1274 35.8983C28.0095 36.5677 26.7057 36.7338 25.53 36.5517C24.9354 36.4633 24.1752 36.1901 23.5025 35.9492L23.1195 35.8099C22.2275 35.5019 21.2488 35.9652 20.9326 36.8571C20.618 37.7492 21.0852 38.7286 21.9781 39.0448L22.3437 39.1734C23.0085 39.4124 23.7473 39.6524 24.4911 39.8171V40.3965C24.4911 41.3417 25.2583 42.1104 26.205 42.1104C27.1517 42.1104 27.9189 41.3418 27.9189 40.3965V39.8606C29.835 39.4498 31.1932 38.2727 31.5034 36.4817C32.1419 32.7698 28.5856 31.75 26.6747 31.2102Z" fill="#43CD9B"/>
</g>
<defs>
<clipPath id="clip0_1247_959">
<rect width="32.9062" height="43.875" fill="white" transform="translate(9.75 4.0625)"/>
</clipPath>
</defs>
</svg>
