<svg width="52" height="52" viewBox="0 0 52 52" fill="none" xmlns="http://www.w3.org/2000/svg">
<path d="M12.4797 20.0843C16.6796 20.0843 20.0843 16.6796 20.0843 12.4797C20.0843 8.27972 16.6796 4.875 12.4797 4.875C8.27972 4.875 4.875 8.27972 4.875 12.4797C4.875 16.6796 8.27972 20.0843 12.4797 20.0843Z" fill="#F6A050"/>
<path d="M26.8462 6.56543C25.2073 6.56543 23.6019 6.76883 22.0639 7.14032C22.9598 8.71201 23.4675 10.5375 23.4675 12.4807C23.4675 18.5322 18.5322 23.4658 12.4824 23.4658C10.556 23.4658 8.7305 22.9581 7.142 22.0622C6.7705 23.6003 6.56711 25.2056 6.56711 26.8445C6.56711 38.033 15.6594 47.1253 26.8479 47.1253C38.0363 47.1253 47.1286 38.033 47.1286 26.8445C47.127 15.6762 38.0347 6.56543 26.8462 6.56543ZM28.5372 26.8462C28.5372 27.3017 28.3523 27.7253 28.0464 28.0464L22.9766 33.1162C22.6388 33.4372 22.2152 33.607 21.7764 33.607C21.3377 33.607 20.9141 33.4372 20.5762 33.1162C19.9173 32.4572 19.9173 31.3915 20.5762 30.7326L25.1568 26.152V15.0139C25.1568 14.0844 25.9183 13.3246 26.8462 13.3246C27.7741 13.3246 28.5356 14.0844 28.5356 15.0139L28.5372 26.8462Z" fill="#F6A050"/>
</svg>
