<svg width="52" height="52" viewBox="0 0 52 52" fill="none" xmlns="http://www.w3.org/2000/svg">
<g clip-path="url(#clip0_1247_968)">
<path d="M40.1049 46.313C40.6157 46.313 41.0336 45.8951 41.0336 45.3842C41.0336 44.8734 40.6157 44.4555 40.1049 44.4555H35.6932L34.8944 40.6196H28.2072V44.2883C28.2072 44.344 28.2072 44.3998 28.1979 44.4555C28.17 45.1335 27.9657 45.7744 27.6313 46.313L40.1049 46.313Z" fill="#7674EE"/>
<path d="M9.8996 8.01839V14.7335H24.3237C26.4599 14.7335 28.206 16.4703 28.206 18.6065V33.0211H52.0106V8.01875C52.0106 6.73706 50.9704 5.6875 49.6887 5.6875H12.2309C10.9492 5.6875 9.8996 6.73665 9.8996 8.01839Z" fill="#7674EE"/>
<path d="M52.0118 34.8784H28.2072V38.7607H49.69C50.9717 38.7607 52.0119 37.7204 52.0119 36.4294L52.0118 34.8784ZM31.291 37.8226H30.6315C30.1207 37.8226 29.7028 37.4047 29.7028 36.8938C29.7028 36.383 30.1207 35.9651 30.6315 35.9651H31.291C31.8018 35.9651 32.2198 36.383 32.2198 36.8938C32.2198 37.4047 31.8018 37.8226 31.291 37.8226Z" fill="#7674EE"/>
<path d="M11.6559 45.3831V27.1417C11.6559 26.6216 11.238 26.2129 10.7272 26.2129H0.928777C0.417947 26.2129 0 26.6216 0 27.1417V45.3831C0 45.894 0.417947 46.3119 0.928777 46.3119H10.7272C11.238 46.3119 11.6559 45.894 11.6559 45.3831ZM6.58484 28.8322H5.07091C4.5508 28.8322 4.14214 28.4142 4.14214 27.9034C4.14214 27.3833 4.5508 26.9746 5.07091 26.9746H6.58484C7.10495 26.9746 7.51361 27.3833 7.51361 27.9034C7.51361 28.4142 7.10495 28.8322 6.58484 28.8322Z" fill="#7674EE"/>
<path d="M13.3467 46.3116H24.325C25.4396 46.3116 26.3497 45.4014 26.3497 44.2869V18.6063C26.3497 17.4917 25.4396 16.5908 24.325 16.5908H6.4182C5.30367 16.5908 4.39349 17.4917 4.39349 18.6063V24.3554H10.7276C12.2601 24.3554 13.5139 25.6 13.5139 27.1417V45.3832C13.5139 45.7083 13.4582 46.0236 13.3467 46.3116Z" fill="#7674EE"/>
</g>
<defs>
<clipPath id="clip0_1247_968">
<rect width="52" height="52" fill="white"/>
</clipPath>
</defs>
</svg>
