<svg width="52" height="52" viewBox="0 0 52 52" fill="none" xmlns="http://www.w3.org/2000/svg">
<path d="M25.1365 26.4061H14.2478C13.3062 26.4061 12.5358 25.6357 12.5358 24.6941C12.5358 23.7524 13.3062 22.982 14.2478 22.982H27.9443C28.6121 22.982 29.1941 23.3758 29.468 23.9407C31.1287 23.3244 32.9264 22.982 34.7926 22.982C35.3747 22.982 35.9397 23.0162 36.5046 23.0847V7.57369C36.5046 4.74881 34.1933 2.4375 31.3685 2.4375H10.8237C7.99881 2.4375 5.6875 4.74881 5.6875 7.57369V40.1029C5.6875 42.9278 7.99881 45.2391 10.8237 45.2391H20.9931C19.9658 43.1675 19.3837 40.8391 19.3837 38.3908C19.3837 33.5457 21.6268 29.2309 25.1365 26.4061ZM15.9599 9.28548H26.2323C27.1739 9.28548 27.9443 10.0559 27.9443 10.9975C27.9443 11.9392 27.1739 12.7096 26.2323 12.7096H15.9599C15.0182 12.7096 14.2478 11.9392 14.2478 10.9975C14.2478 10.0559 15.0182 9.28548 15.9599 9.28548ZM14.2478 16.1337H27.9443C28.886 16.1337 29.6564 16.9041 29.6564 17.8458C29.6564 18.7875 28.886 19.5579 27.9443 19.5579H14.2478C13.3062 19.5579 12.5358 18.7875 12.5358 17.8458C12.5358 16.9041 13.3062 16.1337 14.2478 16.1337ZM34.7926 26.4061C28.1843 26.4061 22.8081 31.782 22.8081 38.3906C22.8081 44.9991 28.184 50.375 34.7926 50.375C41.4011 50.375 46.777 44.9991 46.777 38.3906C46.777 31.782 41.4011 26.4061 34.7926 26.4061ZM31.3685 33.2544C32.3144 33.2544 33.0805 34.0205 33.0805 34.9664C33.0805 35.9124 32.3144 36.6785 31.3685 36.6785C30.4225 36.6785 29.6564 35.9124 29.6564 34.9664C29.6564 34.0205 30.4225 33.2544 31.3685 33.2544ZM38.2167 43.5267C37.2708 43.5267 36.5046 42.7606 36.5046 41.8147C36.5046 40.8687 37.2708 40.1026 38.2167 40.1026C39.1626 40.1026 39.9288 40.8687 39.9288 41.8147C39.9288 42.7606 39.1626 43.5267 38.2167 43.5267ZM39.428 36.1777L32.5797 43.026C32.2459 43.3599 31.8071 43.5268 31.3685 43.5268C30.9298 43.5268 30.491 43.3599 30.1572 43.026C29.4873 42.3561 29.4873 41.2754 30.1572 40.6056L37.0054 33.7573C37.6753 33.0874 38.756 33.0874 39.4259 33.7573C40.0958 34.4272 40.0958 35.5079 39.4259 36.1777H39.428Z" fill="#EE7A72"/>
</svg>
