<svg width="80" height="80" viewBox="0 0 80 80" fill="none" xmlns="http://www.w3.org/2000/svg">
<path fill-rule="evenodd" clip-rule="evenodd" d="M30.2086 8.80005C33.4534 8.80005 36.0846 11.4304 36.0846 14.676C36.0846 17.9208 33.4542 20.552 30.2086 20.552C26.9638 20.552 24.3326 17.9216 24.3326 14.676C24.3326 11.4312 26.9638 8.80005 30.2086 8.80005ZM14.2574 44.8417L19.6886 65.1112C22.0966 63.6553 24.6086 63.1497 27.6838 63.8545L38.639 66.3657C41.1334 66.9376 43.4782 66.7168 45.695 65.4368L73.0902 49.6208C75.535 48.2097 76.3798 45.0552 74.9686 42.6096C73.5574 40.1649 70.4022 39.3193 67.9582 40.7305L51.3726 50.3064C51.3838 50.932 51.3078 51.5696 51.1358 52.2016C50.1502 55.8216 46.3798 57.9809 42.759 56.9953L32.543 54.2144C31.9318 54.0488 31.5702 53.4185 31.7366 52.8073C31.9022 52.1961 32.5326 51.8344 33.1438 52.0009L43.3598 54.7817C45.759 55.4345 48.2606 53.9889 48.9214 51.6017C49.7406 48.5929 47.943 45.4513 44.9342 44.632L25.8086 39.4265C23.2702 39.0905 20.9654 39.7049 18.9326 41.2625L14.2574 44.8417ZM11.5726 43.6873L18.1702 68.3097C18.331 68.9104 17.9718 69.5329 17.371 69.6945L12.8206 70.9136C12.2198 71.0744 11.5974 70.7152 11.4366 70.1144L4.8382 45.4921C4.6774 44.8913 5.0366 44.2689 5.6374 44.1073L10.1878 42.8881C10.7886 42.7272 11.4118 43.0864 11.5726 43.6873ZM57.9422 35.7112C57.4646 30.1648 52.775 25.7736 47.1102 25.7736C41.4454 25.7736 36.7566 30.1648 36.2782 35.7112C36.235 36.2168 36.6286 36.6457 37.1358 36.6457H57.0846C57.5926 36.6457 57.9862 36.2168 57.9422 35.7112ZM47.1102 12.588C50.355 12.588 52.9862 15.2184 52.9862 18.464C52.9862 21.7088 50.3558 24.34 47.1102 24.34C43.8654 24.34 41.2342 21.7097 41.2342 18.464C41.235 15.2192 43.8654 12.588 47.1102 12.588ZM74.8446 31.9241C74.8878 32.4297 74.4942 32.8584 73.987 32.8584H59.719C58.935 30.2609 57.371 28.008 55.3102 26.3616C57.2974 23.7104 60.4638 21.9865 64.0126 21.9865C69.6774 21.9865 74.3662 26.3777 74.8446 31.9241ZM38.911 26.3616C36.8494 28.008 35.2854 30.2609 34.5022 32.8584H20.2342C19.727 32.8584 19.3334 32.4297 19.3766 31.9241C19.8542 26.3777 24.5438 21.9865 30.2086 21.9865C33.7582 21.9865 36.9238 23.7096 38.911 26.3616ZM64.0126 8.80005C67.2574 8.80005 69.8886 11.4304 69.8886 14.676C69.8886 17.9208 67.2582 20.552 64.0126 20.552C60.7678 20.552 58.1366 17.9216 58.1366 14.676C58.1366 11.4312 60.767 8.80005 64.0126 8.80005Z" fill="#EE7A72"/>
</svg>
