<svg width="80" height="80" viewBox="0 0 80 80" fill="none" xmlns="http://www.w3.org/2000/svg">
<path fill-rule="evenodd" clip-rule="evenodd" d="M26.7151 51.0733V20.069C26.7151 18.8483 27.706 17.8574 28.9295 17.8574C30.153 17.8574 31.1439 18.8483 31.1439 20.069H64.3597C68.03 20.069 71.0028 23.0446 71.0028 26.7122V28.9266H31.1439V33.3581H71.0028V44.43C71.0028 48.0976 68.03 51.0732 64.3597 51.0732H31.1439C31.1439 52.2967 30.153 53.2876 28.9295 53.2876C27.706 53.2876 26.7151 52.2968 26.7151 51.0733ZM53.2877 55.4993V64.3568C53.2877 66.1201 52.5874 67.8113 51.3418 69.0569C50.0963 70.2997 48.4078 71 46.6446 71H15.6432C13.8799 71 12.1915 70.2997 10.9459 69.0569C9.70031 67.8113 9 66.1201 9 64.3568V15.6432C9 13.8799 9.7003 12.1887 10.9459 10.9459C12.1915 9.70031 13.8799 9 15.6432 9H46.6446C48.4078 9 50.0963 9.7003 51.3418 10.9459C52.5874 12.1887 53.2877 13.8799 53.2877 15.6432H33.8784C32.6633 14.2841 30.8945 13.426 28.9292 13.426C25.2616 13.426 22.286 16.4043 22.286 20.0692V51.0734C22.286 54.7382 25.2616 57.7138 28.9292 57.7138C30.8944 57.7138 32.6632 56.8613 33.8784 55.4994L53.2877 55.4993ZM25.6083 66.5741H36.6802C37.9037 66.5741 38.8946 65.5804 38.8946 64.3569C38.8946 63.1362 37.9037 62.1453 36.6802 62.1453H25.6083C24.3848 62.1453 23.3939 63.1362 23.3939 64.3569C23.3939 65.5804 24.3848 66.5741 25.6083 66.5741Z" fill="#7674EE"/>
</svg>
