<svg width="21" height="31" viewBox="0 0 21 31" fill="none" xmlns="http://www.w3.org/2000/svg">
<path d="M5.51625 25.0439C8.21885 24.974 14.6303 23.1847 17.2583 16.307C19.8864 9.42933 19.2856 1 19.2856 1C19.2856 1 18.0274 2.53769 16.979 3.58611C15.9306 4.63454 13.9733 6.10233 13.9733 6.10233L12.855 11.9036L11.038 8.26908C11.038 8.26908 7.0803 11.0649 5.86546 16.1672C4.65062 21.2695 5.51625 25.0439 5.51625 25.0439ZM5.51625 25.0439C4.7474 26.1622 2.58066 28.4687 1.04297 29.9365" stroke="#4D9FFF" stroke-width="2" stroke-linecap="round" stroke-linejoin="round"/>
<path d="M12.433 15.5371C11.4544 17.4243 9.63716 19.9405 7.75 22.3868" stroke="#4D9FFF" stroke-width="2" stroke-linecap="round" stroke-linejoin="round"/>
</svg>
