<svg width="80" height="80" viewBox="0 0 80 80" fill="none" xmlns="http://www.w3.org/2000/svg">
<g clip-path="url(#clip0_9_907)">
<path d="M65.625 23.125H48.75V6.25L65.625 23.125ZM48.75 27.3438H65.625V67.4219C65.625 70.9168 62.7918 73.75 59.2969 73.75H21.3281C17.8332 73.75 15 70.9155 15 67.4219V12.5781C15 9.08315 17.8332 6.25 21.3281 6.25H44.5312L44.5318 23.125C44.5312 25.4585 46.4165 27.3438 48.75 27.3438ZM23.4375 17.8516C23.4375 18.429 23.9161 18.9062 24.4922 18.9062H35.0391C35.6191 18.9062 36.0938 18.429 36.0938 17.8516V15.7422C36.0938 15.1661 35.6191 14.6875 35.0391 14.6875H24.4922C23.9161 14.6875 23.4375 15.1661 23.4375 15.7422V17.8516ZM24.4922 27.3438H35.0391C35.6191 27.3438 36.0938 26.8691 36.0938 26.2891V24.1797C36.0938 23.5996 35.6191 23.125 35.0391 23.125H24.4922C23.9161 23.125 23.4375 23.5996 23.4375 24.1797V26.2891C23.4375 26.8691 23.9161 27.3438 24.4922 27.3438ZM41.0376 48.0156L40.1938 47.8047C37.188 46.8818 37.2539 46.3413 37.3594 45.8667C37.5406 44.8368 39.5465 44.5854 41.35 44.8615C42.0875 44.9727 42.8965 45.2322 43.669 45.5001C45.0388 45.9739 46.547 45.2446 47.0243 43.8732C47.5022 42.4968 46.775 40.9939 45.3987 40.5153C44.447 40.1879 43.6704 39.9777 42.9519 39.8202V38.9453C42.9519 37.4912 41.7715 36.3086 40.3151 36.3086C38.8587 36.3086 37.6784 37.491 37.6784 38.9453V39.7353C34.7227 40.3691 32.6396 42.2148 32.165 44.9702C31.1887 50.6181 36.5407 52.1882 38.8254 52.8593L39.5916 53.0818C43.4518 54.1859 43.3885 54.5571 43.2725 55.2281C43.0912 56.258 41.0853 56.5135 39.2765 56.2334C38.3619 56.0974 37.1922 55.6771 36.1573 55.3064L35.5681 55.0922C34.1957 54.6184 32.6901 55.3311 32.2037 56.7032C31.7196 58.0756 32.4385 59.5825 33.8121 60.069L34.3745 60.2667C35.3973 60.6344 36.5339 61.0037 37.6783 61.2571V62.1484C37.6783 63.6026 38.8586 64.7852 40.315 64.7852C41.7714 64.7852 42.9517 63.6027 42.9517 62.1484V61.3239C45.8996 60.692 47.9892 58.881 48.4664 56.1256C49.4487 50.415 43.9775 48.8462 41.0376 48.0156Z" fill="#F6A050"/>
</g>
<defs>
<clipPath id="clip0_9_907">
<rect width="50.625" height="67.5" fill="white" transform="translate(15 6.25)"/>
</clipPath>
</defs>
</svg>
