<svg width="80" height="80" viewBox="0 0 80 80" fill="none" xmlns="http://www.w3.org/2000/svg">
<path fill-rule="evenodd" clip-rule="evenodd" d="M13.6001 15.7766V64.2259C13.6001 66.8046 14.6536 69.1475 16.3531 70.8469C18.0526 72.5465 20.3954 73.5999 22.9741 73.5999H57.2617C59.8404 73.5999 62.1833 72.5464 63.8827 70.8469C65.5822 69.1474 66.6357 66.8046 66.6357 64.2259V15.7766C66.6357 13.1979 65.5822 10.8523 63.8827 9.15286C62.1832 7.45334 59.8404 6.3999 57.2617 6.3999H22.9741C20.3954 6.3999 18.0525 7.45341 16.3531 9.15286C14.6535 10.8524 13.6001 13.1952 13.6001 15.7766ZM45.8798 13.6428H34.3559C32.7287 13.6428 31.2491 13.0102 30.15 11.9781C29.4424 11.3134 28.8902 10.4824 28.5578 9.55218H51.6776C51.3452 10.4824 50.793 11.3106 50.0853 11.9781C48.9863 13.0128 47.5069 13.6428 45.8798 13.6428ZM52.8038 29.5764C53.6723 29.5764 54.38 30.2814 54.38 31.1526V39.3202C54.38 40.1913 53.6751 40.8964 52.8038 40.8964C51.9353 40.8964 51.2276 40.1914 51.2276 39.3202V34.9535L41.8935 44.2876C41.277 44.9041 40.2824 44.9041 39.6659 44.2876L36.9452 41.5641L28.547 49.9622C27.9305 50.5787 26.936 50.5787 26.3195 49.9622C25.7056 49.3483 25.7056 48.3511 26.3195 47.7373L35.83 38.2268C36.4465 37.6129 37.441 37.6129 38.0549 38.2268L40.7784 40.9503L48.9994 32.7292H44.6327C43.7642 32.7292 43.0565 32.0243 43.0565 31.153C43.0565 30.2818 43.7615 29.5768 44.6327 29.5768L52.8038 29.5764ZM16.7499 62.344H63.4857V64.2231C63.4857 65.9306 62.7834 67.4881 61.6549 68.6166C60.5263 69.7451 58.9715 70.4474 57.2587 70.4474H22.9711C21.2609 70.4474 19.7062 69.7478 18.575 68.6166C17.4465 67.4881 16.7441 65.9333 16.7441 64.2231V62.344H16.7499Z" fill="#4D9FFF"/>
</svg>
