<svg width="80" height="80" viewBox="0 0 80 80" fill="none" xmlns="http://www.w3.org/2000/svg">
<path d="M46.9817 41.0706L42.7608 38.4653V30.4673C42.7608 28.9427 41.5237 27.7056 39.9991 27.7056C38.4745 27.7056 37.2373 28.9427 37.2373 30.4673V40.0042C37.2373 40.9612 37.7322 41.8527 38.5472 42.3548L44.0817 45.768C44.5329 46.0482 45.0351 46.1792 45.53 46.1792C46.4542 46.1792 47.3602 45.7134 47.8806 44.8693C48.6811 43.5703 48.2808 41.8711 46.9817 41.0706Z" fill="#43CD9B"/>
<path d="M70.7584 33.1575L64.6308 32.266C63.863 30.4102 63.6556 29.9154 62.8878 28.056L66.5921 23.0964C67.5818 21.7719 67.4472 19.9235 66.2755 18.7553L61.2468 13.7266C60.0788 12.5586 58.2303 12.4276 56.9095 13.4137L51.9463 17.118C50.0905 16.3465 49.592 16.1427 47.7363 15.375L46.8448 9.24737C46.6082 7.61358 45.2073 6.40186 43.5554 6.40186H36.4453C34.7933 6.40186 33.3924 7.61358 33.1559 9.24737L32.2681 15.375C30.4123 16.1428 29.9138 16.3466 28.0544 17.118L23.0912 13.4137C21.7667 12.4276 19.9219 12.5586 18.7539 13.7266L13.7251 18.7553C12.5571 19.9234 12.4225 21.7719 13.4122 23.0927L17.1165 28.0559C16.3487 29.9153 16.1413 30.4101 15.3735 32.2659L9.2459 33.1574C7.61211 33.3939 6.40039 34.7948 6.40039 36.4431V43.5569C6.40039 45.2088 7.61211 46.6097 9.2459 46.8462L15.3735 47.7341C16.1413 49.5935 16.3487 50.0883 17.1165 51.9477L13.4122 56.9073C12.4261 58.2318 12.5607 60.0803 13.7251 61.2484L18.7539 66.2735C19.9219 67.4415 21.7704 67.5761 23.0912 66.59L28.0544 62.8857C29.9102 63.6535 30.4087 63.861 32.2681 64.6287L33.1559 70.7563C33.3924 72.3901 34.7933 73.6019 36.4453 73.6019H43.5554C45.2073 73.6019 46.6083 72.3901 46.8448 70.7563L47.7363 64.6287C49.592 63.8609 50.0905 63.6535 51.9463 62.8857L56.9095 66.59C58.234 67.5761 60.0824 67.4415 61.2468 66.2735L66.2755 61.2484C67.4436 60.0804 67.5782 58.2282 66.5921 56.9073L62.8769 51.9332C63.6447 50.0811 63.8485 49.5862 64.6163 47.7341L70.7621 46.8426C72.3959 46.6061 73.6077 45.2052 73.6077 43.5532V36.4395C73.6077 34.7912 72.3959 33.3866 70.7621 33.1537L70.7584 33.1575ZM39.9997 56.533C30.8664 56.533 23.4615 49.1355 23.4615 40.0023C23.4615 30.8691 30.8663 23.4641 39.9997 23.4641C49.1329 23.4641 56.5304 30.8689 56.5304 40.0023C56.5304 49.1356 49.1292 56.533 39.9997 56.533Z" fill="#43CD9B"/>
</svg>
