<svg width="80" height="80" viewBox="0 0 80 80" fill="none" xmlns="http://www.w3.org/2000/svg">
<path d="M38.6716 40.6248H21.9197C20.471 40.6248 19.2858 39.4396 19.2858 37.9908C19.2858 36.5421 20.471 35.3569 21.9197 35.3569H42.9913C44.0186 35.3569 44.914 35.9627 45.3354 36.8319C47.8903 35.8837 50.656 35.3569 53.527 35.3569C54.4226 35.3569 55.2918 35.4096 56.161 35.5149V11.6518C56.161 7.30587 52.6051 3.75 48.2592 3.75H16.6518C12.3059 3.75 8.75 7.30587 8.75 11.6518V61.6968C8.75 66.0427 12.3059 69.5986 16.6518 69.5986H32.297C30.7167 66.4116 29.8211 62.8294 29.8211 59.0628C29.8211 51.6087 33.2721 44.9706 38.6716 40.6248ZM24.5537 14.2854H40.3573C41.806 14.2854 42.9913 15.4706 42.9913 16.9193C42.9913 18.368 41.806 19.5532 40.3573 19.5532H24.5537C23.105 19.5532 21.9197 18.368 21.9197 16.9193C21.9197 15.4706 23.105 14.2854 24.5537 14.2854ZM21.9197 24.8211H42.9913C44.44 24.8211 45.6252 26.0064 45.6252 27.4551C45.6252 28.9038 44.44 30.089 42.9913 30.089H21.9197C20.471 30.089 19.2858 28.9038 19.2858 27.4551C19.2858 26.0064 20.471 24.8211 21.9197 24.8211ZM53.527 40.6248C43.3604 40.6248 35.0894 48.8954 35.0894 59.0624C35.0894 69.2294 43.36 77.5 53.527 77.5C63.6941 77.5 71.9646 69.2294 71.9646 59.0624C71.9646 48.8954 63.6941 40.6248 53.527 40.6248ZM48.2592 51.1606C49.7144 51.1606 50.8931 52.3392 50.8931 53.7945C50.8931 55.2498 49.7144 56.4285 48.2592 56.4285C46.8039 56.4285 45.6252 55.2498 45.6252 53.7945C45.6252 52.3392 46.8039 51.1606 48.2592 51.1606ZM58.7949 66.9642C57.3396 66.9642 56.161 65.7856 56.161 64.3303C56.161 62.875 57.3396 61.6963 58.7949 61.6963C60.2502 61.6963 61.4289 62.875 61.4289 64.3303C61.4289 65.7856 60.2502 66.9642 58.7949 66.9642ZM60.6584 55.6581L50.1226 66.1938C49.609 66.7075 48.934 66.9643 48.2592 66.9643C47.5843 66.9643 46.9092 66.7075 46.3957 66.1938C45.3651 65.1633 45.3651 63.5007 46.3957 62.4701L56.9314 51.9343C57.962 50.9037 59.6246 50.9037 60.6552 51.9343C61.6858 52.9649 61.6858 54.6275 60.6552 55.6581H60.6584Z" fill="#4BE0E9"/>
</svg>
