<svg width="60" height="60" viewBox="0 0 60 60" fill="none" xmlns="http://www.w3.org/2000/svg">
  <path d="M42.5 17.4C38.7 13.6 33.5 11.5 28 11.5C16.6 11.5 7.4 20.7 7.4 32.1C7.4 35.9 8.4 39.6 10.3 42.8L7.2 52.5L17.2 49.5C20.3 51.2 23.7 52.1 27.2 52.1H27.3C38.7 52.1 48.6 42.9 48.6 31.5C48.6 26 46.4 21.3 42.5 17.4ZM28 48.3C24.9 48.3 21.9 47.5 19.2 46L18.6 45.6L12.8 47.4L14.6 41.8L14.2 41.2C12.6 38.4 11.7 35.3 11.7 32.1C11.7 23 19 15.7 28.1 15.7C32.6 15.7 36.8 17.4 40 20.6C43.2 23.8 45.2 28 45.2 32.5C45.1 41.7 37.1 48.3 28 48.3ZM37.1 36.3C36.5 36 34.2 34.9 33.7 34.7C33.2 34.5 32.8 34.4 32.4 35C32 35.6 31.2 36.6 30.8 37C30.4 37.4 30.1 37.5 29.5 37.2C26.8 35.9 25 34.8 23.2 31.8C22.7 30.9 23.7 31 24.6 29.2C24.8 28.8 24.7 28.5 24.6 28.2C24.5 27.9 23.5 25.6 23 24.4C22.5 23.3 22 23.4 21.6 23.4C21.2 23.4 20.8 23.4 20.4 23.4C20 23.4 19.3 23.5 18.8 24.1C18.3 24.7 17.1 25.8 17.1 28.1C17.1 30.4 18.7 32.7 18.9 33.1C19.1 33.5 23.4 40 29.9 42.9C37.4 46.2 37.4 45 38.4 44.9C39.4 44.8 41.3 43.8 41.8 42.4C42.3 41 42.3 39.8 42.2 39.6C42.1 39.4 41.7 39.3 41.1 39C40.4 36.9 37.7 36.6 37.1 36.3Z" fill="#7161F8"/>
</svg> 